<?xml version="1.0" encoding="UTF-8"?>
<svg id="Capa_1" xmlns="http://www.w3.org/2000/svg" viewBox="0 0 964.89 964.89">
  <defs>
    <style>
      .cls-1 {
        fill: #fff;
      }
    </style>
  </defs>
  <path class="cls-1" d="M569.1,143.71c0-48.53-7.53-95.32-21.46-139.31-21.33-2.88-43.09-4.4-65.2-4.4C216,0,0,216,0,482.45c0,39.4,4.76,77.68,13.67,114.34,30.04,6.16,61.14,9.39,92.97,9.39,255,0,462.46-207.46,462.46-462.46Z"/>
  <path class="cls-1" d="M963.47,445.19c-221.29,8.58-398.68,191.25-398.68,414.6,0,33.03,3.9,65.17,11.23,95.99,221.65-43.57,388.86-238.92,388.86-473.34,0-12.54-.48-24.96-1.42-37.25Z"/>
  <path class="cls-1" d="M667.1,547.14c78.98-78.98,182.59-124.38,293.51-129.07-27.28-204.53-182.68-368.53-382.87-408.64,12.22,43.13,18.57,88.21,18.57,134.28,0,130.79-50.93,253.76-143.42,346.25-92.49,92.49-215.45,143.42-346.25,143.42-28.76,0-57.13-2.47-84.89-7.29,61.14,196.3,244.28,338.81,460.7,338.81,22.59,0,44.81-1.59,66.58-4.59-7.54-32.57-11.43-66.24-11.43-100.5,0-118.1,45.99-229.14,129.5-312.65Z"/>
</svg>